<?xml version="1.0" encoding="utf-8"?>
<!-- Generator: Adobe Illustrator 26.3.1, SVG Export Plug-In . SVG Version: 6.00 Build 0)  -->
<svg version="1.1" id="Layer_1" xmlns="http://www.w3.org/2000/svg" xmlns:xlink="http://www.w3.org/1999/xlink" x="0px" y="0px"
	 viewBox="0 0 112.2 59.4" style="enable-background:new 0 0 112.2 59.4;" xml:space="preserve">
<style type="text/css">
	.st0{fill:#FFE2A4;}
	.st1{fill:#FFCC33;}
	.st2{fill:#498076;}
	.st3{fill:#00594E;}
	.st4{fill:#FFFFFF;}
	.st5{fill:#FFCD00;}
	.st6{fill:#231F20;}
</style>
<g>
	<path class="st0" d="M64.1,8c0,0-15.7-5.8-31.4-5.8S1.4,8,1.4,8s-4.4,29.9,31.4,51.4C68.5,37.8,64.1,8,64.1,8z"/>
	<path class="st1" d="M32.8,2.2C48.5,2.2,64.1,8,64.1,8s4.4,29.9-31.4,51.4V2.2z"/>
	<g>
		<path class="st2" d="M32.8,53.5V6.7C20.6,6.7,6,11.2,6,11.2S5.2,36.8,32.8,53.5z"/>
		<path class="st2" d="M59.6,11.2c0,0-14.6-4.6-26.8-4.6v46.8C60.4,36.8,59.6,11.2,59.6,11.2z"/>
	</g>
	<path class="st3" d="M32.8,6.7c12.1,0,26.8,4.6,26.8,4.6s0.8,25.5-26.8,42.3V6.7z"/>
	<path id="Whole" class="st4" d="M38.3,20.9l-2,4.5l2,4.4c6.9-4.9,8.1-9.9,8.1-9.9l-3.9-4.5h11.1c0,7.6-5,16.5-16.8,26.1l-3.9-10.2
		l-3.9,10.2C17,31.9,12,23,12,15.4h11.1l-3.9,4.5c0,0,1.2,5.1,8.1,9.9l2-4.4l-2-4.5H38.3L38.3,20.9z"/>
</g>
<g>
	<rect x="67" y="2.1" class="st5" width="44.8" height="55.4"/>
	<g>
		<path class="st6" d="M91.4,51.5c0,1.5,0.3,1.7,2.4,1.7c2.1,0,2.4-0.2,2.4-1.7c0-1.1-0.1-1.4-1-1.5c0.8-0.1,0.9-0.5,0.9-1.3
			c0-1.4-0.2-1.7-2.2-1.7s-2.3,0.2-2.3,1.7c0,0.9,0.1,1.3,0.9,1.3C91.6,50.1,91.4,50.4,91.4,51.5L91.4,51.5z M93.8,47.8
			c1,0,1.1,0.1,1.1,0.9s-0.1,0.9-1.1,0.9c-1,0-1.1-0.1-1.1-0.9S92.9,47.8,93.8,47.8z M93.8,50.4c1.1,0,1.3,0.1,1.3,1s-0.1,1-1.3,1
			c-1.1,0-1.3-0.1-1.3-1S92.8,50.4,93.8,50.4z"/>
		<path class="st6" d="M81.2,51.5c0,1.5,0.3,1.7,2.4,1.7c2.1,0,2.4-0.2,2.4-1.7c0-1.1-0.1-1.4-1-1.5c0.8-0.1,0.9-0.5,0.9-1.3
			c0-1.4-0.2-1.7-2.2-1.7c-2,0-2.3,0.2-2.3,1.7c0,0.9,0.1,1.3,0.9,1.3C81.4,50.1,81.2,50.4,81.2,51.5L81.2,51.5z M83.6,47.8
			c1,0,1.1,0.1,1.1,0.9s-0.1,0.9-1.1,0.9c-1,0-1.1-0.1-1.1-0.9S82.7,47.8,83.6,47.8z M83.6,50.4c1.1,0,1.3,0.1,1.3,1s-0.1,1-1.3,1
			c-1.1,0-1.3-0.1-1.3-1S82.6,50.4,83.6,50.4z"/>
		<path class="st6" d="M103.9,52.3c-1.1,0-1.2-0.1-1.2-0.9l-1.2,0.1c0,1.5,0.2,1.7,2.3,1.7c2,0,2.3-0.2,2.3-1.8s-0.3-1.9-2.2-1.9
			c-0.6,0-1,0-1.2,0.1v-1.6h2.1l0.1,0.7h1V47h-4.2l-0.1,3.4c0.7-0.1,1.2-0.1,2-0.1c1.2,0,1.3,0.2,1.3,1.1S105,52.3,103.9,52.3
			L103.9,52.3z"/>
		<path class="st6" d="M100.7,8.3c0.1-0.2,0.2-0.3,0.3-0.5c-0.1-0.2-0.2-0.6-0.3-0.6c-0.1,0-0.5,0.5-0.7,1.1
			C100.4,8.3,100.6,8.3,100.7,8.3L100.7,8.3z"/>
		<polygon class="st6" points="73.7,48 73.7,52.3 72.4,52.3 72.4,53.1 76.2,53.1 76.2,52.3 75,52.3 75,47.1 74.4,47.1 74.4,47.1 
			72.3,47.4 72.4,48.2 		"/>
		<path class="st6" d="M66.2,1.3v57.2h46.2V1.3H66.2z M67.9,3.2h42.7v35.3l-0.6-0.8l-1.6-1.3l-2.4-1.4l-1.2-0.2l-1.2-0.2
			c0,0-1.2-0.8-1.5-0.8c-0.4,0-1.2,0.6-1.2,0.6h-0.9l-0.3,0.2c-0.1-0.4-0.2-0.8-0.2-0.8c-0.1-0.5-0.2-1.2-0.2-1.2
			c0-0.2-0.1-0.9-0.1-1.3c0-0.4-0.3-1.3-0.3-1.3v-3.9c-0.4,0.4-0.9,0.7-1.3,0.9c0,0-0.9,3.3-0.6,5.4c0.1,0.2,0.2,0.5,0.2,0.6
			c0.1,0.3,0.5,1.1,0.7,1.6l0,0c0.1,0.2,0.2,0.5,0.2,0.7h-0.1c-0.1-0.1-0.2-0.3-0.2-0.4c-0.2-0.3-1.1-0.2-1.3-0.3
			c-0.1-0.1-0.2-0.4-0.2-0.6v-0.1l0,0c0-0.1,0-0.3,0-0.3v-0.9c0,0,0.1-5.3,0.6-7.2l0,0l0,0l0,0v-0.1c0,0,1.4,0,3.1-1.9
			c0.5-0.7,1.1-1.7,1.3-2.2c0-0.1,0.1-0.3,0.1-0.4c-0.1-0.4-0.4-0.9-0.6-1.1c0,0,0.5,0,0.8,0.1c0-0.2,0-0.5-0.1-0.7
			c-0.2-0.6,0.4-1.4,0.7-1.6c0.3-0.2,0.3-0.8,0.3-1c0-0.1-0.1-0.4-0.1-0.6l0,0c0,0-0.3-1.1-0.2-1.7c0,0,0,0.9,0.8,1.1
			c0.1,0,0.1,0,0.2,0l0,0c0.3,0,0.7,0.1,0.9,0.1c0.5,0.1,0.7-0.7,0.7-0.7s0.3-0.2,0.6-0.6c0.3-0.3,0.5-0.5,0.4-0.9
			c-0.1-0.4-2.1-1.9-2.1-1.9l0,0c-0.4-0.3-0.8-0.6-1-0.7c0,0,0.3-0.2,0.6-0.1c0.2,0.1,0,0.2,0.5,0.7c0-0.2,0-0.5-0.1-0.8
			c-0.1-0.3-1-1.1-1.3-1.4l-0.3,0.7l0.2-1.9c0-0.5,0-1-0.1-1.2c-0.1-0.3-0.5,0-0.7,0.4l0,0c-0.3,0.5-0.7,1.3-0.7,1.3s-0.5,0-1,0l0,0
			c-0.2,0-0.4,0-0.7,0h-0.1c-0.3,0.1-0.6,0.2-0.8,0.4c-0.6,0.6-2,2.4-2,2.4s-1.4,1.5-1.7,1.6c-0.3,0.2-0.7,0.7-1.4,0.9
			c0,0-0.2,0.3-0.2,0.6c0,0.3,0,0.6,0.2,0.9c0,0-0.3-0.2-0.6-0.4c-1,0.7-3.5,2-3.8,2.2c-0.3,0.2-1.4,1.1-2.4,1.2
			c0,0-6.2,1.3-6.5,1.8c-1.4,0.6-1.8,1.4-2,2c-0.3,0.7-1.1,2.7-1.8,4.1c-0.8,1.4-3.5,3-3.9,3.3s-1,0.2-0.2,1c0.7,0.7,2.5,0.5,3.8,0
			c0.1,0,0.1,0,0.2-0.1c0.1,0,0.1-0.1,0.2-0.1c0.2-0.1,0.4-0.2,0.5-0.3c0.8-0.7,1.2-1.9,1.2-1.9c0-0.1-0.1-0.2-0.1-0.3
			c-0.2-0.4-0.3-1.2,0.3-2c-0.1,0.9,0.1,1.7,0.9,2.3c0.3,0.2,0.4,0.6,0.4,0.6c0.3,1.1-0.5,2.2-1.2,2.8c-0.5,0.5-0.6,0.5-0.5,1.1
			c0,0,1.4,4.3,1.1,5.9l-0.9,0.3c0,0,0.4-2.7-0.1-4.8c0,0.5-0.1,1-0.1,1.5c0,0-0.3,2.2-0.6,2.7c-0.1,0.2-0.1,0.5,0,0.8l-1.1,0.3
			c0,0-1.5,0.5-1.7,0.6c-0.2,0.1-1.1,0-1.1,0s-1.3,0-1.6,0.1c-0.3,0-1.3,0.6-1.3,0.6h-1L68,40.9C67.9,41,67.9,3.2,67.9,3.2z
			 M94.9,36L94,36.4l-2.6,0.8l-2.1,0.3c0,0-1.5,0.1-1.9-0.2c-0.5-0.3-1.8-0.2-1.9-0.2c-0.1,0-1.2,0.3-1.9,0.5
			c-0.2,0.1-0.5,0.2-0.8,0.2c-0.4-0.3-1.3-0.8-2.3-0.9c0,0-0.1-0.2-0.2-0.5c0-0.3-0.2-3-0.1-3.6c0.1-0.6,1.5-1.5,2.9-2.7
			c1.3-1.1,1.5-2.5,1.5-2.5s0.4-0.7,0.8-0.9c0.4-0.2,1.5,0,2.4,0.3c0.9,0.4,5.4,0.1,5.4,0.1c0,0.7,0.7,3.9,0.9,4.6
			c0.2,0.6,0.4,1.6,0.6,2.4C94.8,35.1,94.9,35.9,94.9,36z M110.6,56.7H67.9V43.3h42.7L110.6,56.7L110.6,56.7z"/>
	</g>
</g>
</svg>
